<svg width="48" height="48" viewBox="0 0 48 48" fill="none" xmlns="http://www.w3.org/2000/svg">
<path d="M44.6222 9.99838C43.9502 9.99838 43.3022 10.0224 42.6422 10.0464V7.71838C42.6422 7.17838 42.1982 6.73438 41.6582 6.73438C35.5622 6.73438 29.6342 7.92238 24.0062 10.2624C18.3902 7.92238 12.4502 6.73438 6.35425 6.73438C5.81425 6.73438 5.37025 7.17838 5.37025 7.71838V10.0584C4.71025 10.0344 4.06225 10.0104 3.39025 10.0104C2.83825 10.0104 2.40625 10.4664 2.40625 10.9944V36.0744C2.40625 36.6264 2.83825 37.0584 3.39025 37.0584C10.3622 37.0584 17.1902 38.4504 23.6102 41.2104C23.7422 41.2704 23.8622 41.2944 24.0062 41.2944C24.1382 41.2944 24.2582 41.2704 24.4022 41.2104C30.8342 38.4624 37.6502 37.0584 44.6222 37.0584C45.1742 37.0584 45.6062 36.6264 45.6062 36.0744V10.9944C45.6062 10.4544 45.1742 9.99838 44.6222 9.99838ZM40.6742 33.0864C35.2742 33.1944 30.0182 34.2864 24.9902 36.2544V12.0144C30.0062 9.96238 35.2622 8.83438 40.6742 8.71438V33.0864ZM7.33825 8.70238C12.7502 8.82238 18.0062 9.95038 23.0222 12.0024V36.2424C17.9942 34.2744 12.7382 33.1944 7.33825 33.0744V8.70238Z" fill="#7E2EE6"/>
<path d="M11.0383 14.9548C13.6903 15.2428 16.3543 15.7828 18.9463 16.5508C19.0423 16.5748 19.1383 16.5868 19.2223 16.5868C19.6423 16.5868 20.0383 16.3108 20.1583 15.8788C20.3143 15.3628 20.0143 14.8108 19.4983 14.6548C16.7983 13.8508 14.0143 13.2868 11.2423 12.9868C10.6903 12.9508 10.2223 13.3228 10.1623 13.8628C10.1023 14.4148 10.4983 14.8948 11.0383 14.9548Z" fill="#7E2EE6"/>
<path d="M19.4983 19.422C16.7983 18.618 14.0263 18.054 11.2423 17.754C10.6903 17.706 10.2223 18.09 10.1623 18.63C10.1023 19.17 10.4983 19.65 11.0383 19.71C13.7023 19.998 16.3663 20.538 18.9463 21.306C19.0423 21.33 19.1383 21.342 19.2223 21.342C19.6423 21.342 20.0383 21.066 20.1583 20.646C20.3143 20.13 20.0143 19.578 19.4983 19.422Z" fill="#7E2EE6"/>
<path d="M19.4983 24.186C16.7983 23.382 14.0263 22.818 11.2423 22.518C10.6903 22.482 10.2223 22.854 10.1623 23.394C10.1023 23.934 10.4983 24.414 11.0383 24.474C13.7023 24.762 16.3663 25.302 18.9463 26.07C19.0423 26.094 19.1383 26.106 19.2223 26.106C19.6423 26.106 20.0383 25.83 20.1583 25.41C20.3143 24.882 20.0143 24.342 19.4983 24.186Z" fill="#7E2EE6"/>
<path d="M19.4983 28.9377C16.7983 28.1337 14.0263 27.5697 11.2423 27.2697C10.6903 27.2217 10.2223 27.6057 10.1623 28.1457C10.1023 28.6857 10.4983 29.1657 11.0383 29.2257C13.7023 29.5137 16.3663 30.0537 18.9463 30.8217C19.0423 30.8457 19.1383 30.8577 19.2223 30.8577C19.6423 30.8577 20.0383 30.5817 20.1583 30.1617C20.3143 29.6457 20.0143 29.0937 19.4983 28.9377Z" fill="#7E2EE6"/>
<path d="M27.8616 15.8902C27.9936 16.3222 28.3776 16.5982 28.7976 16.5982C28.8936 16.5982 28.9896 16.5862 29.0736 16.5622C31.6656 15.7942 34.3176 15.2542 36.9816 14.9662C37.5216 14.9062 37.9056 14.4262 37.8576 13.8862C37.7976 13.3462 37.3176 12.9742 36.7776 13.0102C34.0056 13.3102 31.2336 13.8742 28.5216 14.6782C28.0056 14.8222 27.7056 15.3742 27.8616 15.8902Z" fill="#7E2EE6"/>
<path d="M36.7776 17.764C33.9936 18.064 31.2216 18.628 28.5216 19.432C28.0056 19.588 27.7056 20.14 27.8616 20.656C27.9936 21.088 28.3776 21.352 28.7976 21.352C28.8936 21.352 28.9896 21.34 29.0736 21.316C31.6536 20.548 34.3176 20.008 36.9816 19.72C37.5216 19.66 37.9056 19.18 37.8576 18.64C37.7976 18.088 37.3176 17.704 36.7776 17.764Z" fill="#7E2EE6"/>
<path d="M36.7776 22.5197C33.9936 22.8197 31.2216 23.3837 28.5216 24.1877C28.0056 24.3437 27.7056 24.8957 27.8616 25.4117C27.9936 25.8437 28.3776 26.1077 28.7976 26.1077C28.8936 26.1077 28.9896 26.0957 29.0736 26.0717C31.6536 25.3037 34.3176 24.7637 36.9816 24.4757C37.5216 24.4157 37.9056 23.9357 37.8576 23.3957C37.7976 22.8557 37.3176 22.4717 36.7776 22.5197Z" fill="#7E2EE6"/>
<path d="M36.7776 27.2638C33.9936 27.5638 31.2216 28.1278 28.5216 28.9318C28.0056 29.0878 27.7056 29.6398 27.8616 30.1558C27.9936 30.5878 28.3776 30.8518 28.7976 30.8518C28.8936 30.8518 28.9896 30.8398 29.0736 30.8158C31.6536 30.0478 34.3176 29.5078 36.9816 29.2198C37.5216 29.1598 37.9056 28.6798 37.8576 28.1398C37.7976 27.5998 37.3176 27.2038 36.7776 27.2638Z" fill="#7E2EE6"/>
</svg>
