<svg width="48" height="48" viewBox="0 0 48 48" fill="none" xmlns="http://www.w3.org/2000/svg">
<path d="M23.9959 3.84375C12.8719 3.84375 3.83594 12.8798 3.83594 24.0037C3.83594 35.1277 12.8719 44.1637 23.9959 44.1637C35.1199 44.1637 44.1559 35.1277 44.1559 24.0037C44.1559 12.8798 35.1199 3.84375 23.9959 3.84375ZM23.9959 40.9237C14.6719 40.9237 7.07594 33.3398 7.07594 24.0037C7.07594 14.6677 14.6719 7.08375 23.9959 7.08375C33.3199 7.08375 40.9159 14.6677 40.9159 24.0037C40.9159 33.3398 33.3199 40.9237 23.9959 40.9237Z" fill="#7E2EE6"/>
<path d="M33.866 24.0026C33.866 24.8906 33.41 25.7066 32.654 26.1746L21.638 32.9546C21.23 33.2066 20.762 33.3266 20.306 33.3266C19.874 33.3266 19.454 33.2186 19.058 33.0026C18.254 32.5586 17.75 31.6946 17.75 30.7826V17.2226C17.75 16.2986 18.254 15.4466 19.058 15.0026C19.862 14.5586 20.846 14.5706 21.638 15.0506L32.654 21.8306C33.41 22.2986 33.866 23.1146 33.866 24.0026Z" fill="#7E2EE6"/>
</svg>
