<svg width="41" height="40" viewBox="0 0 41 40" fill="none" xmlns="http://www.w3.org/2000/svg">
<path d="M32.4787 0.243164C28.3053 0.243164 24.9219 3.62673 24.9219 7.80003C24.9219 11.6969 27.8742 14.8965 31.6624 15.3049C36.1998 15.7779 40.0359 12.2422 40.0359 7.80003C40.0359 3.62658 36.6525 0.243164 32.4787 0.243164ZM29.6245 9.75642C29.6143 9.63815 29.7148 9.53812 29.8333 9.53812H30.9713C31.0659 9.53812 31.1559 9.60027 31.1711 9.69396C31.2462 10.1524 31.6453 10.5039 32.1252 10.5039H32.7781C33.2597 10.5039 33.7074 10.1765 33.7859 9.70076C33.8855 9.09687 33.4197 8.5726 32.8329 8.5726H32.2372C30.9273 8.5726 29.7552 7.61728 29.6276 6.31425C29.4953 4.96345 30.4424 3.80499 31.7071 3.59163V2.604C31.7071 2.49037 31.7992 2.39776 31.9129 2.39776H33.0444C33.1582 2.39776 33.2504 2.49037 33.2504 2.604V3.59225C34.3653 3.7801 35.2343 4.70124 35.3334 5.84348C35.3436 5.96175 35.2431 6.06271 35.1247 6.06271H33.9868C33.8922 6.06271 33.8022 5.99932 33.787 5.9064C33.7119 5.44706 33.3128 5.09549 32.8331 5.09549H32.1804C31.6991 5.09549 31.2512 5.42295 31.1723 5.89806C31.072 6.50241 31.5384 7.02807 32.1253 7.02807H32.8331C34.3 7.02807 35.4766 8.29307 35.3306 9.78796C35.2208 10.9136 34.3325 11.7743 33.2505 11.9908V12.9973C33.2505 13.1108 33.1585 13.2028 33.0446 13.2028H31.913C31.7994 13.2028 31.7073 13.1108 31.7073 12.9973V12.0076C30.5925 11.8195 29.724 10.8987 29.6247 9.75657L29.6245 9.75642Z" fill="#AF70FF"/>
<path d="M1.08464 31.2729H6.57364C7.11322 31.2729 7.55137 31.7111 7.55137 32.2507V38.7755C7.55137 39.3153 7.11322 39.7534 6.57348 39.7534H1.08464C0.544906 39.7534 0.10675 39.3153 0.10675 38.7755V32.2508C0.10675 31.7111 0.544906 31.2729 1.08464 31.2729Z" fill="#AF70FF"/>
<path d="M10.642 26.8003H16.1306C16.6702 26.8003 17.1084 27.2384 17.1084 27.778V38.7767C17.1084 39.3163 16.6702 39.7545 16.1306 39.7545H10.642C10.1022 39.7545 9.66406 39.3163 9.66406 38.7766V27.7783C9.66406 27.2386 10.1022 26.8003 10.642 26.8003Z" fill="#AF70FF"/>
<path d="M20.186 22.3276H25.675C26.2146 22.3276 26.6528 22.7658 26.6528 23.3054V38.7775C26.6528 39.3172 26.2146 39.7554 25.6749 39.7554H20.1862C19.6465 39.7554 19.2083 39.3172 19.2083 38.7775V23.3057C19.2083 22.7659 19.6465 22.3278 20.1862 22.3278L20.186 22.3276Z" fill="#AF70FF"/>
<path d="M29.7435 17.855H35.2322C35.7718 17.855 36.2099 18.2931 36.2099 18.8327V38.7785C36.2099 39.3181 35.7718 39.7563 35.2322 39.7563H29.7435C29.2037 39.7563 28.7656 39.3181 28.7656 38.7784V18.8329C28.7656 18.2931 29.2037 17.855 29.7435 17.855Z" fill="#AF70FF"/>
<path d="M21.638 11.6643C21.4801 11.3256 21.1933 11.0618 20.8408 10.9346L15.0253 8.81896C14.2909 8.55072 13.4808 8.9309 13.2148 9.66358C12.9481 10.3964 13.326 11.2073 14.0595 11.474L16.6701 12.4238L0.816312 19.8167C0.108832 20.1464 -0.19698 20.9865 0.132642 21.6932C0.372591 22.2084 0.882329 22.5103 1.41418 22.5103C1.61424 22.5103 1.81739 22.4673 2.01049 22.3769L17.8631 14.9847L16.913 17.5954C16.6463 18.3282 17.0242 19.1391 17.7578 19.4058C17.9172 19.4641 18.0805 19.4916 18.2406 19.4916C18.8178 19.4916 19.3597 19.1345 19.5682 18.561L21.6853 12.7447C21.8133 12.3936 21.7964 12.0043 21.6378 11.664L21.638 11.6643Z" fill="#AF70FF"/>
</svg>
