<svg width="49" height="40" viewBox="0 0 49 40" fill="none" xmlns="http://www.w3.org/2000/svg">
<path d="M41.0696 17.5302L42.5685 18.0755L35.4034 21.4167C34.9184 21.6427 34.7086 22.2192 34.9347 22.7038C35.099 23.0564 35.4484 23.2635 35.8133 23.2635C35.9506 23.2635 36.0897 23.2342 36.2219 23.1726L43.3873 19.8312L42.8417 21.3298C42.6587 21.8329 42.9178 22.3887 43.4206 22.5719C43.5299 22.6115 43.642 22.6305 43.7521 22.6305C44.1478 22.6305 44.5194 22.3861 44.6624 21.9929L46.0075 18.2966C46.1905 17.7936 45.9314 17.238 45.4286 17.0548L41.7324 15.7095C41.2295 15.5266 40.6735 15.7858 40.4909 16.2885C40.3079 16.7915 40.567 17.3471 41.0695 17.5303L41.0696 17.5302Z" fill="#AF70FF"/>
<path d="M24.6783 25.918L23.6068 32.9765H26.7388L27.6429 27.0223L25.5826 26.37C25.2535 26.2668 24.9498 26.1118 24.6785 25.9181L24.6783 25.918Z" fill="#AF70FF"/>
<path d="M21.8465 22.2012C21.9651 22.2352 22.0854 22.2514 22.2036 22.2514C22.7647 22.2514 23.2811 21.8828 23.4443 21.3162L24.1551 18.8425L25.5331 18.1791L25.0213 23.1353C24.9507 23.865 25.3963 24.5431 26.0937 24.769L30.3752 26.1252L30.4333 29.9227H33.5332L33.4556 24.9627C33.4489 24.2976 33.0097 23.71 32.3769 23.5099L29.6648 22.6509L30.6663 18.2307C30.9261 18.2095 31.185 18.1706 31.4367 18.1004L34.5086 17.2387C34.8699 17.1375 35.1685 16.8844 35.3287 16.5453L36.0813 14.9475L36.6442 16.2003C36.8044 16.5566 37.2227 16.7156 37.579 16.5555C37.9356 16.3954 38.0943 15.9767 37.9345 15.6203L36.8746 13.2623L37.1371 12.7049C37.4407 12.0596 37.1641 11.2901 36.5187 10.986C36.2864 10.8768 36.0386 10.8453 35.8022 10.8764L34.3941 7.74265C35.1532 7.29012 35.893 7.18174 36.7274 7.06578C37.4458 6.96591 38.2309 6.85722 39.0468 6.49034C39.422 6.32151 39.8044 6.09779 40.1906 5.79569C40.4464 5.5947 40.5329 5.24575 40.3991 4.94891L38.3628 0.417232C38.2733 0.218871 38.098 0.0727679 37.8866 0.0205108C37.675 -0.0315916 37.4508 0.0169549 37.281 0.15038C36.3566 0.874558 35.4952 0.994688 34.4953 1.13414C33.4462 1.27963 32.2574 1.44521 31.0331 2.40377C30.7772 2.60399 30.6908 2.95371 30.824 3.25071L34.6869 11.8448L33.2435 14.911L30.7404 15.6129C30.5117 15.6769 30.269 15.6853 30.0383 15.6378L27.5243 15.1217C26.8066 14.9722 26.0482 15.0636 25.3891 15.3815L22.5135 16.7664C22.182 16.9261 21.9341 17.2196 21.8323 17.5735L20.9618 20.603C20.7653 21.2885 21.1611 22.004 21.8469 22.2013L21.8465 22.2012Z" fill="#AF70FF"/>
<path d="M47.2572 25.2603H42.7569C42.2219 25.2603 41.7885 25.6938 41.7885 26.229V28.3171H36.2992C35.7641 28.3171 35.3303 28.7507 35.3303 29.2857V31.3739H29.8413C29.3059 31.3739 28.8723 31.8074 28.8723 32.3426V34.4307H23.383C22.8479 34.4307 22.4141 34.8644 22.4141 35.3994V38.0606H0.968611C0.433517 38.0606 0 38.4941 0 39.0292C0 39.5643 0.433517 39.998 0.968611 39.998H23.383C23.9181 39.998 24.3519 39.5645 24.3519 39.0292V36.3683H29.8413C30.3759 36.3683 30.8097 35.9346 30.8097 35.3995V33.3114H36.299C36.8341 33.3114 37.2675 32.8779 37.2675 32.3428V30.2548H42.7568C43.2919 30.2548 43.7257 29.821 43.7257 29.2859V27.1978H47.2571C47.7922 27.1978 48.2255 26.7643 48.2255 26.2292C48.2255 25.6941 47.792 25.2604 47.2571 25.2604L47.2572 25.2603Z" fill="#AF70FF"/>
<path d="M29.7891 14.6947C31.2903 14.6947 32.5074 13.4775 32.5074 11.9763C32.5074 10.475 31.2903 9.25781 29.7891 9.25781C28.2878 9.25781 27.0703 10.475 27.0703 11.9763C27.0703 13.4775 28.2874 14.6947 29.7891 14.6947Z" fill="#AF70FF"/>
<path d="M5.19994 27.0861C5.34295 27.1496 5.50158 27.1813 5.64459 27.1813C6.13701 27.1813 6.59727 26.8795 6.78806 26.4032C7.29641 25.1487 7.97915 23.9098 8.61427 23.0046L8.43988 27.7847L6.53419 36.6463H9.3134L11.0759 28.4676H11.616V36.6463H14.3316V27.9118L14.1727 23.3063L15.1257 24.4816C15.2687 24.6722 15.4751 24.7991 15.6976 24.8786L18.2225 25.7044C18.8738 25.9108 19.5566 25.5456 19.7628 24.9103C19.9695 24.2592 19.6198 23.5763 18.9847 23.3699L16.7933 22.6554L15.0144 20.4638C14.3792 19.6697 13.4263 19.2251 12.41 19.2251H10.0278C7.23271 19.2251 5.10455 24.0212 4.51719 25.4981C4.26287 26.1334 4.5645 26.8478 5.19994 27.0861Z" fill="#AF70FF"/>
<path d="M11.3688 18.4865C12.8728 18.4865 14.0917 17.2673 14.0917 15.7635C14.0917 14.2596 12.8728 13.0405 11.3688 13.0405C9.86475 13.0405 8.64583 14.2598 8.64583 15.7635C8.64583 17.2672 9.86521 18.4865 11.3688 18.4865Z" fill="#AF70FF"/>
</svg>
