<svg width="48" height="48" viewBox="0 0 48 48" fill="none" xmlns="http://www.w3.org/2000/svg">
<path d="M34.9745 19.6483C34.9745 13.5883 30.0665 8.65625 24.0065 8.65625C17.9465 8.65625 13.0625 13.5763 13.0625 19.6483C13.0625 23.3683 14.9225 26.6682 17.7545 28.6362C18.1745 27.8682 18.7025 27.1842 19.3385 26.6202C17.1065 25.1082 15.6305 22.5282 15.6305 19.6362C15.6305 15.0043 19.3865 11.2243 24.0065 11.2243C28.6265 11.2243 32.4065 15.0043 32.4065 19.6362C32.4065 22.5282 30.9305 25.1082 28.6865 26.6202C29.3345 27.1722 29.8745 27.8562 30.2945 28.6362C33.1265 26.6442 34.9745 23.3563 34.9745 19.6483Z" fill="#7E2EE6"/>
<path d="M24.0006 2.75781C14.7006 2.75781 7.14062 10.3298 7.14062 19.6538C7.14062 26.4458 11.1486 32.3018 16.9206 34.9658V32.0738C12.6126 29.6138 9.70863 24.9578 9.70863 19.6538C9.70863 11.7578 16.1286 5.33781 24.0006 5.33781C31.8726 5.33781 38.2926 11.7578 38.2926 19.6538C38.2926 24.9578 35.4006 29.6138 31.1046 32.0738V34.9658C36.8646 32.2778 40.8606 26.4218 40.8606 19.6538C40.8606 10.3298 33.3006 2.75781 24.0006 2.75781Z" fill="#7E2EE6"/>
<path d="M23.9992 24.6163C26.7472 24.6163 28.9672 22.3843 28.9672 19.6363C28.9672 16.8883 26.7472 14.6562 23.9992 14.6562C21.2512 14.6562 19.0312 16.8883 19.0312 19.6363C19.0312 22.3843 21.2632 24.6163 23.9992 24.6163Z" fill="#7E2EE6"/>
<path d="M24.0047 27.75C21.6887 27.75 19.8047 29.646 19.8047 31.962V41.262C19.8047 43.578 21.7007 45.474 24.0047 45.474C26.3207 45.474 28.2047 43.578 28.2047 41.262V31.962C28.2047 29.646 26.3207 27.75 24.0047 27.75Z" fill="#7E2EE6"/>
</svg>
