<svg width="43" height="40" viewBox="0 0 43 40" fill="none" xmlns="http://www.w3.org/2000/svg">
<path d="M42.1819 25.0344C40.4058 18.489 37.2122 10.767 31.7746 7.77782L35.4383 4.20254C36.7829 2.89101 35.8542 0.608398 33.9754 0.608398H19.8058C17.9274 0.608398 16.9985 2.89101 18.343 4.20254L22.0006 7.77164C18.1454 9.89361 15.4153 14.3944 13.5286 19.1692C15.6333 19.8909 17.1276 21.0372 17.1276 22.5936V36.7644C18.1239 37.2253 19.2071 37.5238 20.3654 37.6358C22.2953 37.8103 24.4745 37.9349 26.8901 37.9349C29.3057 37.9349 31.4853 37.8103 33.4276 37.6358C39.6043 37.0509 43.8132 31.0234 42.1821 25.0342L42.1819 25.0344ZM30.8482 28.3609C30.1246 29.1599 29.1336 29.6231 28.0574 29.6646L27.9674 29.6683V31.3805C27.9674 31.5107 27.8629 31.6152 27.7327 31.6152H26.0496C25.9195 31.6152 25.8137 31.5107 25.8137 31.3805V29.6683L25.7237 29.6646C23.7355 29.588 22.1047 28.0435 21.9297 26.0723C21.9237 26.0053 21.9467 25.9385 21.9917 25.8886C22.0367 25.8387 22.0986 25.8119 22.1656 25.8119H23.8609C23.9751 25.8119 24.0725 25.8971 24.092 26.0126C24.2367 26.8918 24.987 27.529 25.8772 27.529H27.9045C28.4238 27.529 28.9187 27.304 29.2628 26.9136C29.607 26.522 29.765 26.0004 29.6982 25.4798C29.584 24.5848 28.7862 23.9087 27.8437 23.9087H25.9904C23.8343 23.9087 22.048 22.2756 21.9227 20.19C21.857 19.121 22.2159 18.0947 22.9332 17.303C23.6568 16.5027 24.6478 16.0395 25.724 15.9981L25.814 15.9944V14.2846C25.814 14.1544 25.9198 14.0499 26.0499 14.0499H27.733C27.8632 14.0499 27.9677 14.1544 27.9677 14.2846V15.9944L28.0577 15.9981C30.0447 16.0759 31.6767 17.6216 31.8517 19.5929C31.8578 19.6598 31.8359 19.7254 31.791 19.7753C31.7447 19.8251 31.6827 19.8518 31.6158 19.8518H29.9205C29.8063 19.8518 29.7089 19.7679 29.6906 19.6511C29.5459 18.7719 28.7944 18.1348 27.9043 18.1348H25.8771C25.3578 18.1348 24.8629 18.3597 24.5187 18.7501C24.1746 19.1417 24.0166 19.6646 24.0833 20.185C24.1988 21.08 24.9966 21.7561 25.9379 21.7561H27.7911C29.9473 21.7561 31.7348 23.3892 31.8601 25.4761C31.9245 26.5451 31.5646 27.569 30.8483 28.3606L30.8482 28.3609Z" fill="#AF70FF"/>
<path d="M7.69278 20.0288C2.99629 20.0288 0 21.5464 0 22.5911C0 23.6358 2.99644 25.1522 7.69278 25.1522C12.3891 25.1522 15.3855 23.6358 15.3855 22.5911C15.3855 21.5464 12.3891 20.0288 7.69278 20.0288Z" fill="#AF70FF"/>
<path d="M0 34.6514V36.8305C0 37.8751 2.99644 39.3916 7.69278 39.3916C12.3891 39.3916 15.3855 37.8752 15.3855 36.8305V34.6514C13.5627 35.7914 10.5717 36.3904 7.69278 36.3904C4.81385 36.3904 1.82281 35.7914 0 34.6514Z" fill="#AF70FF"/>
<path d="M0 29.9053V32.0845C0 33.1291 2.99644 34.6455 7.69278 34.6455C12.3891 34.6455 15.3855 33.1291 15.3855 32.0845V29.9053C13.5627 31.0453 10.5717 31.6443 7.69278 31.6443C4.81385 31.6443 1.82281 31.0453 0 29.9053Z" fill="#AF70FF"/>
<path d="M0 25.1592V27.3384C0 28.3829 2.99644 29.8994 7.69278 29.8994C12.3891 29.8994 15.3855 28.383 15.3855 27.3384V25.1592C13.5627 26.2992 10.5717 26.8982 7.69278 26.8982C4.81385 26.8982 1.82281 26.2992 0 25.1592Z" fill="#AF70FF"/>
<path d="M3.02163 4.70466L6.73823 0.987919C7.24441 0.481892 8.14607 0.481892 8.63601 0.987919L12.3688 4.70466C12.891 5.24254 12.891 6.08082 12.3688 6.61839C12.1001 6.87163 11.768 7.01372 11.4202 7.01372C11.0723 7.01372 10.724 6.87163 10.471 6.61839L9.03151 5.17931V16.0924C9.03151 16.8359 8.4307 17.437 7.68735 17.437C6.944 17.437 6.34288 16.836 6.34288 16.0924V5.17915L4.91957 6.61823C4.39746 7.14034 3.54374 7.14034 3.02178 6.61823C2.49968 6.08066 2.49968 5.24239 3.02178 4.70451L3.02163 4.70466Z" fill="#AF70FF"/>
</svg>
