<svg width="56" height="40" viewBox="0 0 56 40" fill="none" xmlns="http://www.w3.org/2000/svg">
<path d="M51.2146 8.81592H37.4583V35.5084H52.9166V10.5175C52.9166 9.58137 52.1508 8.81592 51.2146 8.81592ZM43.7483 30.3161C43.7483 30.7415 43.4001 31.0898 42.9747 31.0898H41.9431C41.5175 31.0898 41.1695 30.7415 41.1695 30.3161V28.0593C41.1695 27.634 41.5177 27.2857 41.9431 27.2857H42.9747C43.4003 27.2857 43.7483 27.634 43.7483 28.0593V30.3161ZM43.7483 23.2886C43.7483 23.714 43.4001 24.0623 42.9747 24.0623H41.9431C41.5175 24.0623 41.1695 23.714 41.1695 23.2886V21.0319C41.1695 20.6065 41.5177 20.2582 41.9431 20.2582H42.9747C43.4003 20.2582 43.7483 20.6065 43.7483 21.0319V23.2886ZM43.7483 16.2604C43.7483 16.6857 43.4001 17.034 42.9747 17.034H41.9431C41.5175 17.034 41.1695 16.6857 41.1695 16.2604V14.0042C41.1695 13.5781 41.5177 13.2306 41.9431 13.2306H42.9747C43.4003 13.2306 43.7483 13.5781 43.7483 14.0042V16.2604ZM49.1815 30.3161C49.1815 30.7415 48.8333 31.0898 48.4079 31.0898H47.3762C46.9507 31.0898 46.6025 30.7415 46.6025 30.3161V28.0593C46.6025 27.634 46.9507 27.2857 47.3762 27.2857H48.4079C48.8335 27.2857 49.1815 27.634 49.1815 28.0593V30.3161ZM49.1815 23.2886C49.1815 23.714 48.8333 24.0623 48.4079 24.0623H47.3762C46.9507 24.0623 46.6025 23.714 46.6025 23.2886V21.0319C46.6025 20.6065 46.9507 20.2582 47.3762 20.2582H48.4079C48.8335 20.2582 49.1815 20.6065 49.1815 21.0319V23.2886ZM49.1815 16.2604C49.1815 16.6857 48.8333 17.034 48.4079 17.034H47.3762C46.9507 17.034 46.6025 16.6857 46.6025 16.2604V14.0042C46.6025 13.5781 46.9507 13.2306 47.3762 13.2306H48.4079C48.8335 13.2306 49.1815 13.5781 49.1815 14.0042V16.2604Z" fill="#AF70FF"/>
<path d="M2.51058 10.5259V35.5084H17.9689V8.81592H4.21263C3.27633 8.81592 2.51041 9.58121 2.51041 10.5257L2.51058 10.5259ZM11.6794 14.0045C11.6794 13.5784 12.0275 13.2309 12.453 13.2309H13.4847C13.9102 13.2309 14.2584 13.5784 14.2584 14.0045V16.2607C14.2584 16.686 13.9102 17.0343 13.4847 17.0343H12.453C12.0274 17.0343 11.6794 16.686 11.6794 16.2607V14.0045ZM11.6794 21.032C11.6794 20.6067 12.0275 20.2584 12.453 20.2584H13.4847C13.9102 20.2584 14.2584 20.6067 14.2584 21.032V23.2888C14.2584 23.7141 13.9102 24.0625 13.4847 24.0625H12.453C12.0274 24.0625 11.6794 23.7141 11.6794 23.2888V21.032ZM11.6794 28.0595C11.6794 27.6342 12.0275 27.2859 12.453 27.2859H13.4847C13.9102 27.2859 14.2584 27.6342 14.2584 28.0595V30.3163C14.2584 30.7416 13.9102 31.0899 13.4847 31.0899H12.453C12.0274 31.0899 11.6794 30.7416 11.6794 30.3163V28.0595ZM6.24618 14.0045C6.24618 13.5784 6.59434 13.2309 7.01982 13.2309H8.05152C8.477 13.2309 8.82516 13.5784 8.82516 14.0045V16.2607C8.82516 16.686 8.477 17.0343 8.05152 17.0343H7.01982C6.59434 17.0343 6.24618 16.686 6.24618 16.2607V14.0045ZM6.24618 21.032C6.24618 20.6067 6.59434 20.2584 7.01982 20.2584H8.05152C8.477 20.2584 8.82516 20.6067 8.82516 21.032V23.2888C8.82516 23.7141 8.477 24.0625 8.05152 24.0625H7.01982C6.59434 24.0625 6.24618 23.7141 6.24618 23.2888V21.032ZM6.24618 28.0595C6.24618 27.6342 6.59434 27.2859 7.01982 27.2859H8.05152C8.477 27.2859 8.82516 27.6342 8.82516 28.0595V30.3163C8.82516 30.7416 8.477 31.0899 8.05152 31.0899H7.01982C6.59434 31.0899 6.24618 30.7416 6.24618 30.3163V28.0595Z" fill="#AF70FF"/>
<path d="M37.7385 3.37297V1.55588C37.7385 1.12901 37.392 0.782227 36.9648 0.782227H18.4533C18.026 0.782227 17.6797 1.12901 17.6797 1.55588V3.37297C17.6797 3.79984 18.026 4.14663 18.4533 4.14663H19.8245V35.5024H35.5935V4.14663H36.9648C37.3922 4.14663 37.7385 3.79984 37.7385 3.37297ZM26.282 30.3155C26.282 30.7408 25.9338 31.0892 25.5083 31.0892H24.4768C24.0512 31.0892 23.7031 30.7408 23.7031 30.3155V28.0587C23.7031 27.6334 24.0513 27.2851 24.4768 27.2851H25.5083C25.934 27.2851 26.282 27.6334 26.282 28.0587V30.3155ZM26.282 23.288C26.282 23.7133 25.9338 24.0617 25.5083 24.0617H24.4768C24.0512 24.0617 23.7031 23.7133 23.7031 23.288V21.0312C23.7031 20.6059 24.0513 20.2576 24.4768 20.2576H25.5083C25.934 20.2576 26.282 20.6059 26.282 21.0312V23.288ZM28.5581 17.0336H26.86V15.4533C25.4911 15.2361 24.4647 14.0445 24.4647 12.6619V12.6076H26.1628V12.6619C26.1628 13.2911 26.6745 13.8034 27.3039 13.8034H28.1145C28.7438 13.8034 29.2555 13.2911 29.2555 12.6619C29.2555 12.0326 28.7438 11.5212 28.1145 11.5212H27.3039C25.7385 11.5212 24.4649 10.2479 24.4649 8.68248C24.4649 7.29983 25.4913 6.10827 26.8602 5.89105V4.31081H28.5582V5.89105C29.9271 6.10827 30.9536 7.29983 30.9536 8.68248V8.73674H29.2555V8.68248C29.2555 8.05323 28.7438 7.54102 28.1145 7.54102H27.3039C26.6747 7.54102 26.1628 8.05323 26.1628 8.68248C26.1628 9.31173 26.6745 9.82394 27.3039 9.82394H28.1145C29.6799 9.82394 30.9536 11.0973 30.9536 12.6621C30.9536 14.0447 29.9271 15.2363 28.5582 15.4535V17.0337L28.5581 17.0336ZM31.7152 30.3155C31.7152 30.7408 31.367 31.0892 30.9415 31.0892H29.9098C29.4843 31.0892 29.1362 30.7408 29.1362 30.3155V28.0587C29.1362 27.6334 29.4843 27.2851 29.9098 27.2851H30.9415C31.367 27.2851 31.7152 27.6334 31.7152 28.0587V30.3155ZM31.7152 23.288C31.7152 23.7133 31.367 24.0617 30.9415 24.0617H29.9098C29.4843 24.0617 29.1362 23.7133 29.1362 23.288V21.0312C29.1362 20.6059 29.4843 20.2576 29.9098 20.2576H30.9415C31.367 20.2576 31.7152 20.6059 31.7152 21.0312V23.288Z" fill="#AF70FF"/>
<path d="M0 38.288C0 38.8018 0.416509 39.2181 0.930113 39.2181H54.505C55.0188 39.2181 55.4352 38.8016 55.4352 38.288C55.4352 37.7743 55.0186 37.3579 54.505 37.3579H0.930113C0.416354 37.3579 0 37.7744 0 38.288Z" fill="#AF70FF"/>
</svg>
