<svg width="311" height="146" viewBox="0 0 311 146" fill="none" xmlns="http://www.w3.org/2000/svg">
<g clip-path="url(#clip0_3362_12481)">
<path d="M252.97 128.39C234.32 102.37 215.37 77.3396 196.34 51.9796C198.67 45.4196 203.17 39.9096 204.97 33.0996C195.64 42.0096 187.84 52.2296 179.73 62.1496C171.48 72.2196 163.66 82.6496 155.29 93.3896C146.92 82.6496 139.1 72.2196 130.85 62.1496C122.74 52.2296 114.94 42.0096 105.61 33.0996C107.41 39.9096 111.91 45.4196 114.24 51.9796C95.21 77.3396 76.26 102.37 57.61 128.39C38.68 131.18 19.23 132.37 0 135.58C3.94 136.91 8.03 136.76 11.98 137.19C26.66 138.82 41.21 141.26 55.83 143.3C71.68 145.52 87.67 146.37 103.6 145.27C119.78 144.15 134.93 139.34 147.79 128.87C150.42 126.73 152.77 124.24 155.29 121.86C157.81 124.24 160.16 126.73 162.79 128.87C175.65 139.34 190.8 144.15 206.98 145.27C222.91 146.37 238.9 145.52 254.75 143.3C269.37 141.26 283.92 138.82 298.6 137.19C302.55 136.76 306.64 136.91 310.58 135.58C291.35 132.37 271.9 131.18 252.97 128.39ZM90.42 123.32C102.55 107.06 114.57 90.9296 127.01 74.2496C133.37 85.3096 139.29 95.6196 145.22 105.93C135.08 120.61 106.37 126.96 90.42 123.32ZM165.36 105.93C171.29 95.6196 177.21 85.3096 183.57 74.2496C196.01 90.9296 208.03 107.06 220.16 123.32C204.21 126.96 175.5 120.61 165.36 105.93Z" fill="white"/>
<path d="M187.281 40.1C182.581 46.05 177.821 52.31 172.621 58.91C166.631 50.57 161.161 42.96 155.291 34.79C149.421 42.96 143.951 50.57 137.961 58.91C132.761 52.31 128.001 46.05 123.301 40.1C133.921 26.82 144.211 13.13 155.291 0C166.371 13.13 176.661 26.82 187.281 40.1Z" fill="white"/>
</g>
<defs>
<clipPath id="clip0_3362_12481">
<rect width="310.58" height="145.75" fill="white"/>
</clipPath>
</defs>
</svg>
