<svg width="20" height="21" viewBox="0 0 20 21" fill="none" xmlns="http://www.w3.org/2000/svg">
<path d="M10.8334 11.3337H9.16675V6.33366H10.8334M10.8334 14.667H9.16675V13.0003H10.8334M10.0001 2.16699C8.90573 2.16699 7.8221 2.38254 6.81105 2.80133C5.80001 3.22012 4.88135 3.83395 4.10752 4.60777C2.54472 6.17057 1.66675 8.29019 1.66675 10.5003C1.66675 12.7105 2.54472 14.8301 4.10752 16.3929C4.88135 17.1667 5.80001 17.7805 6.81105 18.1993C7.8221 18.6181 8.90573 18.8337 10.0001 18.8337C12.2102 18.8337 14.3298 17.9557 15.8926 16.3929C17.4554 14.8301 18.3334 12.7105 18.3334 10.5003C18.3334 9.40598 18.1179 8.32234 17.6991 7.3113C17.2803 6.30025 16.6665 5.38159 15.8926 4.60777C15.1188 3.83395 14.2002 3.22012 13.1891 2.80133C12.1781 2.38254 11.0944 2.16699 10.0001 2.16699Z" fill="#CA0000"/>
</svg>
